<svg id="Camada_1" data-name="Camada 1" xmlns="http://www.w3.org/2000/svg" xmlns:xlink="http://www.w3.org/1999/xlink" viewBox="0 0 950 950"><defs><style>.cls-1{fill:url(#Gradiente_sem_nome_317);}.cls-2{fill:url(#Gradiente_sem_nome_230);}.cls-3{fill:url(#Gradiente_sem_nome_318);}.cls-4{fill:url(#Gradiente_sem_nome_234);}.cls-5{fill:url(#Gradiente_sem_nome_236);}.cls-6{fill:none;stroke:#000;stroke-miterlimit:10;stroke-width:0.25px;}</style><linearGradient id="Gradiente_sem_nome_317" x1="53.46" y1="561" x2="259.25" y2="524.66" gradientUnits="userSpaceOnUse"><stop offset="0" stop-color="#b51f0b"/><stop offset="1" stop-color="#380400"/></linearGradient><linearGradient id="Gradiente_sem_nome_230" x1="29.73" y1="390.16" x2="238.24" y2="350.9" gradientUnits="userSpaceOnUse"><stop offset="0" stop-color="#e32213"/><stop offset="1" stop-color="#5f0f00"/></linearGradient><linearGradient id="Gradiente_sem_nome_318" x1="171.19" y1="608.68" x2="173.95" y2="460.6" gradientUnits="userSpaceOnUse"><stop offset="0" stop-color="#cb210f"/><stop offset="0.43" stop-color="#961808"/><stop offset="0.81" stop-color="#6e1202"/><stop offset="1" stop-color="#5f0f00"/></linearGradient><linearGradient id="Gradiente_sem_nome_234" x1="164.96" y1="386.53" x2="213.23" y2="511.47" gradientUnits="userSpaceOnUse"><stop offset="0" stop-color="#5f0f00"/><stop offset="0.47" stop-color="#9b1809"/><stop offset="1" stop-color="#e32213"/></linearGradient><linearGradient id="Gradiente_sem_nome_236" x1="109.18" y1="506.87" x2="216.96" y2="394.6" gradientUnits="userSpaceOnUse"><stop offset="0" stop-color="#e32213"/><stop offset="0.3" stop-color="#b81c0d"/><stop offset="0.77" stop-color="#781304"/><stop offset="1" stop-color="#5f0f00"/></linearGradient></defs><path d="M287.38,307.15H354q34.72,0,50.66,16.14t15.94,49.64V390.5q0,44.53-29.42,56.38v.82q16.33,4.91,23.09,20T421,508.17v50.25a190.41,190.41,0,0,0,.82,19.82,49.48,49.48,0,0,0,4.08,14.92H380.13a65.45,65.45,0,0,1-3.27-13.08Q376,574,376,558v-52.3q0-19.62-6.33-27.38t-21.86-7.76H332.33V593.16H287.38Zm61.29,122.57q13.49,0,20.22-6.94t6.75-23.29V377.42q0-15.51-5.52-22.47T352.76,348H332.33v81.72Z"/><path d="M486.77,307.15h60.88l46.58,286h-45l-8.17-56.8v.82H490l-8.17,56H440.19Zm49,191.21L515.78,357H515L495.35,498.36Z"/><path d="M629,578.65q-17.16-18.58-17.16-53.32V375q0-34.73,17.16-53.32t49.85-18.59q32.69,0,49.85,18.59T745.81,375v24.52h-42.5V372.11q0-28.19-23.29-28.19t-23.29,28.19V528.6q0,27.78,23.29,27.78t23.29-27.78v-56H680.84V431.77h65v93.56q0,34.74-17.16,53.32T678.8,597.24Q646.1,597.24,629,578.65Z"/><path d="M809.54,307.15h60.88l46.58,286H872.06l-8.18-56.8v.82H812.81l-8.17,56H763Zm49,191.21L838.55,357h-.81L818.12,498.36Z"/><path class="cls-1" d="M255.31,504.06a81.29,81.29,0,0,1-8,38.6C240,558.11,229,570.43,215,580.13a104.12,104.12,0,0,1-10.36,6.27,86.57,86.57,0,0,1-8.52,3.27h-.5l-9.71.07-22.65.23q-9.39.09-18.77.21l-35.48.35-62.55.78L71,538c14.21,0,24.33-.13,31.09-.25l16.16-.29,12.72-.23,22.86-.37,3.05-.05c11.79-.21,11.49-.22,11.7-.21,3.07.16,6.15-.23,9.23-.18a1.79,1.79,0,0,0,.82-.17,1.37,1.37,0,0,0,.39-.27c.22-.19.42-.38.63-.58a88.38,88.38,0,0,0,68.1-62.53,91.45,91.45,0,0,1,4.15,11.06A79.86,79.86,0,0,1,255.31,504.06Z"/><path class="cls-2" d="M257.16,389a84.6,84.6,0,0,1-8.5,35.21l-.66,1.32a88.37,88.37,0,0,0-68.17-63.45l-1.1-.9a3.64,3.64,0,0,0-2.44-.77q-6.73,0-13.47,0H147.16l-23.32,0-26.9,0c-11.6,0-28.46.08-50.94.3l25-54.85,80.57-.4,5.9,0c13.7-.06,16.35-.11,20.19-.11,4.46,0,10.79.07,18.57.36a96.56,96.56,0,0,1,34.26,22A88.7,88.7,0,0,1,253,363.46,82.18,82.18,0,0,1,257.16,389Z"/><path class="cls-3" d="M232.78,449.54a96.6,96.6,0,0,1,15,23.29,88.38,88.38,0,0,1-68.1,62.53c7.16-6.74,11.76-14.89,13.1-24.77,1.43-10.48-1.32-20-7.18-28.63-.83-1.23-1.81-2.36-2.7-3.55a1.7,1.7,0,0,0-1.51-.73c-2.19,0-4.39,0-6.58-.06l-23.43-.22-20-.22c-6.66-.08-13.31-.14-20-.23-3.72-.05-7.43-.12-11.15-.18l-.53,0a.57.57,0,0,1-.07-.12s0-.08,0-.11a4.6,4.6,0,0,1,.19-.52q5.3-11.5,10.61-23A86.31,86.31,0,0,0,232.34,449Z"/><path class="cls-4" d="M248,425.53a132.7,132.7,0,0,1-15.49,22l-.73.84a85.74,85.74,0,0,0-115-9.23q4.74-10.27,9.49-20.57h1.1l31.8.23c7.14.06,14.28.15,21.42.22a1.4,1.4,0,0,0,1.11-.37c6.39-6.31,10.63-13.78,11.85-22.73a35.59,35.59,0,0,0-7.21-27,42.17,42.17,0,0,0-6.54-6.88A88.37,88.37,0,0,1,248,425.53Z"/><path class="cls-5" d="M231.78,448.38c.19.22.37.44.56.65-13.49,14.26-26.93,20.22-34.46,22.84C189,475,181,476,174.52,476.74a151.76,151.76,0,0,1-30.73.61l-44.14-.73q7-15.3,14-30.56,6.31-13.76,12.68-27.48l26.87.28c12.56-.74,39.28-.38,63.75,16.59A90,90,0,0,1,231.78,448.38Z"/><path class="cls-6" d="M144.44,590.19H144l-19.41.22-19.19.22L86,590.87l-19.52.22-19.3.23h-.79a10.06,10.06,0,0,1,.39-1q12-25.61,24-51.2a1.43,1.43,0,0,1,1.52-.94c5.44,0,10.88-.15,16.32-.24h.74l12.72-.22,16.16-.29,12.72-.23,22.86-.37,3.05-.05,9.67-.17,5.47-.11,5.79-.11a1.7,1.7,0,0,0,1.21-.44c.22-.19.42-.38.63-.58,7.16-6.74,11.76-14.89,13.1-24.77,1.43-10.48-1.32-20-7.18-28.63-.83-1.23-1.81-2.36-2.7-3.55a1.7,1.7,0,0,0-1.51-.73c-2.19,0-4.39,0-6.58-.06l-23.43-.22-20-.22c-6.66-.08-13.31-.14-20-.23-3.72-.05-7.43-.12-11.15-.18l-.53,0a.57.57,0,0,1-.07-.12s0-.08,0-.11a4.6,4.6,0,0,1,.19-.52q5.3-11.5,10.61-23l6.38-13.82q4.74-10.27,9.49-20.57h1.1l31.8.23c7.14.06,14.28.15,21.42.22a1.4,1.4,0,0,0,1.11-.37c6.39-6.31,10.63-13.78,11.85-22.73a35.59,35.59,0,0,0-7.21-27,42.17,42.17,0,0,0-6.54-6.88l-1.1-.9a3.64,3.64,0,0,0-2.44-.77q-6.73,0-13.47,0H147.16l-50.22,0H88.29c-18.32,0-32.83.18-42.29.29l25-54.85c19.62-.21,33.26-.27,42.28-.28,15.87,0,20.25-.05,29-.08,3.1,0,6.19,0,9.28,0,2,0,3.93,0,5.9,0l20.19-.11,8.81,0h7.82a5.4,5.4,0,0,1,1.94.38A103.3,103.3,0,0,1,229,326.54l.47.45A89.58,89.58,0,0,1,253,363.46a78.26,78.26,0,0,1,4.06,21.85A79.31,79.31,0,0,1,249.22,423c-.18.39-.37.79-.56,1.18l-.66,1.32a95,95,0,0,1-15.49,22c-.16.18-.33.37-.52.6l-.21.24c.19.22.37.44.56.65l.44.51a96.6,96.6,0,0,1,15,23.29,91.45,91.45,0,0,1,4.15,11.06,79.86,79.86,0,0,1,3.42,20.17,81.29,81.29,0,0,1-8,38.6C240,558.11,229,570.43,215,580.13a104.12,104.12,0,0,1-10.36,6.27q-2.34,1.23-4.72,2.39a9.3,9.3,0,0,1-3.8.88h-.5l-9.71.07-22.65.23Q153.82,590.07,144.44,590.19Z"/></svg>