<?xml version="1.0" encoding="UTF-8"?>
<svg xmlns="http://www.w3.org/2000/svg" xmlns:xlink="http://www.w3.org/1999/xlink" viewBox="0 0 50 50" width="50px" height="50px">
<g id="surface75046416">
<path style=" stroke:none;fill-rule:nonzero;fill:rgb(12.941177%,1.176471%,16.078432%);fill-opacity:1;" d="M 9 4 C 6.238281 4 4 6.238281 4 9 L 4 41 C 4 43.761719 6.238281 46 9 46 L 41 46 C 43.761719 46 46 43.761719 46 41 L 46 9 C 46 6.238281 43.761719 4 41 4 Z M 12 18 L 18.730469 18 C 19.460938 18 23.410156 17.949219 23.410156 21.570312 C 23.410156 23.492188 22.101562 24.140625 21.507812 24.429688 C 22.390625 24.710938 24 25.519531 24 28 C 24 31.828125 19.609375 32 19.019531 32 L 12 32 Z M 29 18 L 36 18 L 36 20 L 29 20 Z M 15 20.429688 L 15 23.710938 L 18.222656 23.710938 C 18.660156 23.710938 20.121094 23.46875 20.121094 22 C 20.121094 20.53125 18.21875 20.429688 17.929688 20.429688 Z M 32.730469 21 C 36.628906 21 37.691406 24.039062 37.847656 24.761719 C 38 25.488281 38 26.128906 38 27 L 30.097656 27 C 30.097656 27.871094 30.5625 29.832031 32.890625 29.832031 C 33.511719 29.832031 33.96875 29.679688 34.441406 29.390625 C 34.898438 29.101562 35.0625 28.820312 35.210938 28.527344 L 37.839844 28.527344 C 37.378906 29.679688 36.761719 30.550781 35.832031 31.128906 C 34.898438 31.710938 33.820312 32 32.582031 32 C 31.800781 32 31.03125 31.851562 30.25 31.558594 C 29.628906 31.269531 29.011719 30.839844 28.550781 30.410156 C 28.089844 29.96875 27.78125 29.390625 27.472656 28.667969 C 27.160156 28.089844 27 27.21875 27 26.5 C 27 25.78125 27.289062 21 32.730469 21 Z M 32.730469 23.027344 C 30.46875 23.027344 30.097656 25.199219 30.097656 25.339844 L 35.058594 25.339844 C 34.902344 24.621094 34.25 23.027344 32.730469 23.027344 Z M 15 25.710938 L 15 29.570312 L 18.351562 29.570312 C 18.640625 29.570312 20.679688 29.480469 20.679688 27.710938 C 20.679688 25.949219 19.078125 25.710938 18.351562 25.710938 Z M 15 25.710938 "/>
</g>
</svg>
