<svg id="Camada_1" data-name="Camada 1" xmlns="http://www.w3.org/2000/svg" xmlns:xlink="http://www.w3.org/1999/xlink" viewBox="0 0 950 297"><defs><style>.cls-1{fill:#09131b;}.cls-2{fill:url(#Gradiente_sem_nome);}.cls-3{fill:url(#Gradiente_sem_nome_2);}.cls-4{fill:url(#Gradiente_sem_nome_3);}.cls-5{fill:url(#Gradiente_sem_nome_4);}.cls-6{fill:url(#Gradiente_sem_nome_5);}.cls-7{fill:none;stroke:#000;stroke-miterlimit:10;stroke-width:0.25px;}</style><linearGradient id="Gradiente_sem_nome" x1="44.2" y1="27.63" x2="252.73" y2="64.45" gradientTransform="matrix(1, 0, 0, -1, 0, 290)" gradientUnits="userSpaceOnUse"><stop offset="0" stop-color="#8927b7"/><stop offset="0.99" stop-color="#510b6c"/></linearGradient><linearGradient id="Gradiente_sem_nome_2" x1="20.14" y1="200.73" x2="231.45" y2="240.53" gradientTransform="matrix(1, 0, 0, -1, 0, 290)" gradientUnits="userSpaceOnUse"><stop offset="0" stop-color="#8927b7"/><stop offset="1" stop-color="#510b6c"/></linearGradient><linearGradient id="Gradiente_sem_nome_3" x1="163.32" y1="-22.52" x2="166.11" y2="127.54" gradientTransform="matrix(1, 0, 0, -1, 0.41, 288.56)" gradientUnits="userSpaceOnUse"><stop offset="0" stop-color="#8927b7"/><stop offset="0.2" stop-color="#8425b1"/><stop offset="0.48" stop-color="#771e9f"/><stop offset="0.8" stop-color="#611382"/><stop offset="1" stop-color="#510b6c"/></linearGradient><linearGradient id="Gradiente_sem_nome_4" x1="157.18" y1="204.42" x2="206.09" y2="77.82" gradientTransform="matrix(1, 0, 0, -1, 0, 290)" gradientUnits="userSpaceOnUse"><stop offset="0" stop-color="#510b6c"/><stop offset="0.8" stop-color="#7e21a8"/><stop offset="1" stop-color="#8927b7"/></linearGradient><linearGradient id="Gradiente_sem_nome_5" x1="100.65" y1="82.49" x2="209.87" y2="196.25" gradientTransform="matrix(1, 0, 0, -1, 0, 290)" gradientUnits="userSpaceOnUse"><stop offset="0" stop-color="#8927b7"/><stop offset="0.63" stop-color="#641485"/><stop offset="1" stop-color="#510b6c"/></linearGradient></defs><path class="cls-1" d="M288.38,5.27H355q34.72,0,50.66,16.14T421.6,71.05V88.62q0,44.54-29.42,56.38v.82q16.33,4.91,23.09,20T422,206.29v50.25a190.16,190.16,0,0,0,.82,19.82,49.61,49.61,0,0,0,4.08,14.91H381.13a65.31,65.31,0,0,1-3.27-13.07q-.83-6.13-.82-22.06v-52.3q0-19.62-6.33-27.38t-21.86-7.76H333.33V291.27H288.38Zm61.29,122.57q13.49,0,20.22-6.94t6.75-23.29V75.54q0-15.53-5.52-22.47t-17.36-7H333.33v81.72Z"/><path class="cls-1" d="M487.77,5.27h60.88l46.58,286h-45l-8.17-56.79v.82H491l-8.17,56H441.19Zm49,191.21-20-141.37H516L496.35,196.48Z"/><path class="cls-1" d="M630,276.76q-17.16-18.58-17.16-53.32V73.09q0-34.73,17.16-53.33T679.8,1.18q32.69,0,49.85,18.59t17.16,53.32V97.61h-42.5V70.23Q704.31,42,681,42T657.73,70.23V226.76q0,27.78,23.29,27.78t23.29-27.78v-56H681.84V129.88h65v93.57q0,34.74-17.16,53.32T679.8,295.36Q647.1,295.36,630,276.76Z"/><path class="cls-1" d="M810.54,5.27h60.88l46.58,286H873.06l-8.18-56.79v.82H813.81l-8.17,56H764Zm49,191.21-20-141.37h-.81L819.12,196.48Z"/><path class="cls-2" d="M248.74,204.68a82.32,82.32,0,0,1-8.11,39.11c-7.44,15.65-18.59,28.14-32.79,38a102.69,102.69,0,0,1-10.5,6.34,85.8,85.8,0,0,1-8.63,3.32h-.51l-9.84.07-23,.23-19,.22-36,.35L37,293.11,62,239c14.4,0,24.65-.13,31.5-.25l16.38-.3,12.89-.23,23.17-.38,3.09-.05c11.94-.21,11.64-.22,11.85-.21,3.11.16,6.24-.23,9.36-.18a1.71,1.71,0,0,0,.76-.19,1.82,1.82,0,0,0,.41-.27l.63-.59A89.55,89.55,0,0,0,241,173a93.79,93.79,0,0,1,4.24,11.23A81.09,81.09,0,0,1,248.74,204.68Z"/><path class="cls-3" d="M250.62,88.08A85.9,85.9,0,0,1,242,123.76c-.27.56-.5,1-.66,1.33A89.58,89.58,0,0,0,172.25,60.8c-.36-.31-.73-.61-1.11-.91a3.7,3.7,0,0,0-2.48-.78H88.25c-11.75,0-28.84.08-51.62.3L62,3.89l81.65-.4h6c13.89-.06,16.57-.11,20.47-.11,4.51,0,10.93.07,18.81.36A98.06,98.06,0,0,1,223.65,26a89.73,89.73,0,0,1,22.78,36.24A83.42,83.42,0,0,1,250.62,88.08Z"/><path class="cls-4" d="M225.81,149.3A96.77,96.77,0,0,1,241,172.86a89.54,89.54,0,0,1-68.86,63.52,41.59,41.59,0,0,0,13.24-25.14c1.42-10.62-1.39-20.22-7.34-29-.85-1.24-1.84-2.38-2.74-3.59a1.75,1.75,0,0,0-1.54-.73c-2.22,0-4.45,0-6.67,0l-23.74-.17q-10.12-.07-20.24-.18l-20.23-.18c-3.77,0-7.54-.11-11.31-.16H91l0-.14a.2.2,0,0,1,0-.11,3.31,3.31,0,0,1,.18-.53l10.71-23.35a87.44,87.44,0,0,0,123.53-4.27Z"/><path class="cls-5" d="M241.34,125.09a135,135,0,0,1-15.7,22.31c-.24.29-.49.57-.74.85a85.64,85.64,0,0,0-63.2-27.47,87,87,0,0,0-53.31,18.12L118,118.06h1.11l32.23.23q10.85.09,21.7.22a1.39,1.39,0,0,0,1.13-.38c6.47-6.39,10.77-14,12-23,1.38-10.08-1.22-19.19-7.31-27.33a43.07,43.07,0,0,0-6.63-7A89.59,89.59,0,0,1,241.34,125.09Z"/><path class="cls-6" d="M224.9,148.24l.56.66c-13.66,14.45-27.29,20.49-34.91,23.14-9.05,3.15-17.15,4.14-23.68,4.94a153.62,153.62,0,0,1-31.14.62L91,176.86q7.05-15.48,14.16-31Q111.57,131.94,118,118l27.22.28c12.74-.75,39.81-.39,64.61,16.81A91,91,0,0,1,224.9,148.24Z"/><path class="cls-7" d="M136.39,292H136l-19.7.28-19.44.23-19.67.23-19.79.22-19.56.23h-.79a10.06,10.06,0,0,1,.39-1q12.17-26,24.31-51.91a1.46,1.46,0,0,1,1.53-1c5.51-.05,11-.15,16.54-.24h.75l12.89-.22,16.38-.3,12.89-.23,23.17-.38,3.09-.05,9.79-.17,5.55-.11,5.87-.11a1.74,1.74,0,0,0,1.23-.44l.63-.59c7.26-6.84,11.91-15.09,13.28-25.1,1.45-10.63-1.34-20.23-7.28-29-.84-1.24-1.83-2.39-2.73-3.6a1.75,1.75,0,0,0-1.54-.73c-2.22,0-4.44,0-6.67-.06l-23.74-.23-20.23-.22-20.24-.22c-3.77-.05-7.54-.13-11.3-.19h-.54a.54.54,0,0,1-.07-.13v-.1a5.62,5.62,0,0,1,.19-.53Q96.56,164.62,102,153q3.22-7,6.46-14l9.59-20.9h1.11l32.23.23q10.85.09,21.7.22a1.39,1.39,0,0,0,1.13-.38c6.47-6.39,10.77-14,12-23,1.38-10.08-1.22-19.19-7.31-27.33a43.07,43.07,0,0,0-6.63-7c-.36-.31-.73-.61-1.11-.91a3.7,3.7,0,0,0-2.48-.78H79.49c-18.56,0-33.27.17-42.86.29L62,3.89c19.88-.21,33.7-.28,42.84-.29,16.08,0,20.52-.05,29.4-.07h15.41l20.47-.11H187a5.51,5.51,0,0,1,2,.38,104.85,104.85,0,0,1,33.21,21.08l.47.45a90.74,90.74,0,0,1,23.89,37,79.55,79.55,0,0,1,4.12,22.14,80.64,80.64,0,0,1-8,38.22c-.19.4-.38.8-.58,1.2l-.66,1.33a96,96,0,0,1-15.7,22.31l-.53.61-.21.24.56.66.45.52a97.57,97.57,0,0,1,15.16,23.6,93.35,93.35,0,0,1,4.13,11.08,81.09,81.09,0,0,1,3.46,20.44,82.32,82.32,0,0,1-8.11,39.11c-7.44,15.65-18.59,28.14-32.79,38a102.69,102.69,0,0,1-10.5,6.34q-2.37,1.26-4.78,2.43a9.35,9.35,0,0,1-3.85.89h-.51l-9.84.07-23,.23Z"/></svg>