<svg id="Camada_1" data-name="Camada 1" xmlns="http://www.w3.org/2000/svg" xmlns:xlink="http://www.w3.org/1999/xlink" viewBox="0 0 950 323"><defs><style>.cls-1{fill:#fff;}.cls-2{fill:url(#Gradiente_sem_nome_56);}.cls-3{fill:url(#Gradiente_sem_nome_42);}.cls-4{fill:url(#Gradiente_sem_nome_52);}.cls-5{fill:url(#Gradiente_sem_nome_48);}.cls-6{fill:url(#Gradiente_sem_nome_50);}.cls-7{fill:none;stroke:#000;stroke-miterlimit:10;stroke-width:0.25px;}</style><linearGradient id="Gradiente_sem_nome_56" x1="44.2" y1="283.13" x2="252.73" y2="246.31" gradientUnits="userSpaceOnUse"><stop offset="0" stop-color="#8927b7"/><stop offset="0.99" stop-color="#510b6c"/></linearGradient><linearGradient id="Gradiente_sem_nome_42" x1="20.14" y1="110.02" x2="231.45" y2="70.22" gradientUnits="userSpaceOnUse"><stop offset="0" stop-color="#8927b7"/><stop offset="1" stop-color="#510b6c"/></linearGradient><linearGradient id="Gradiente_sem_nome_52" x1="163.8" y1="332.81" x2="166.59" y2="182.75" gradientTransform="translate(-0.79 -0.97) rotate(-0.13)" gradientUnits="userSpaceOnUse"><stop offset="0" stop-color="#8927b7"/><stop offset="0.2" stop-color="#8425b1"/><stop offset="0.48" stop-color="#771e9f"/><stop offset="0.8" stop-color="#611382"/><stop offset="1" stop-color="#510b6c"/></linearGradient><linearGradient id="Gradiente_sem_nome_48" x1="157.19" y1="106.34" x2="206.1" y2="232.94" gradientUnits="userSpaceOnUse"><stop offset="0" stop-color="#510b6c"/><stop offset="0.8" stop-color="#7e21a8"/><stop offset="1" stop-color="#8927b7"/></linearGradient><linearGradient id="Gradiente_sem_nome_50" x1="100.66" y1="228.28" x2="209.88" y2="114.52" gradientUnits="userSpaceOnUse"><stop offset="0" stop-color="#8927b7"/><stop offset="0.63" stop-color="#641485"/><stop offset="1" stop-color="#510b6c"/></linearGradient></defs><path class="cls-1" d="M288.38,20.51H355q34.72,0,50.66,16.14t15.94,49.64v17.57q0,44.54-29.42,56.38v.82q16.33,4.91,23.09,20T422,221.53v50.25a190.41,190.41,0,0,0,.82,19.82,49.42,49.42,0,0,0,4.08,14.91H381.13a65.2,65.2,0,0,1-3.27-13.07q-.83-6.13-.82-22.06v-52.3q0-19.62-6.33-27.38t-21.86-7.76H333.33V306.51H288.38Zm61.29,122.57q13.49,0,20.22-6.94t6.75-23.29V90.78q0-15.52-5.52-22.47t-17.36-7H333.33v81.72Z"/><path class="cls-1" d="M487.77,20.51h60.88l46.58,286h-45l-8.17-56.79v.82H491l-8.17,56H441.19Zm49,191.21-20-141.37H516L496.35,211.72Z"/><path class="cls-1" d="M630,292q-17.16-18.58-17.16-53.32V88.33Q612.79,53.61,630,35T679.8,16.42q32.69,0,49.85,18.59t17.16,53.32v24.52h-42.5V85.47q0-28.18-23.29-28.19T657.73,85.47V242q0,27.78,23.29,27.78T704.31,242V186H681.84V145.12h65v93.57q0,34.74-17.16,53.32T679.8,310.6Q647.1,310.6,630,292Z"/><path class="cls-1" d="M810.54,20.51h60.88l46.58,286H873.06l-8.18-56.79v.82H813.81l-8.17,56H764Zm49,191.21-20-141.37h-.81L819.12,211.72Z"/><path class="cls-2" d="M248.74,225.44a82.29,82.29,0,0,1-8.11,39.11c-7.44,15.65-18.59,28.14-32.79,38a104.52,104.52,0,0,1-10.5,6.34,85.43,85.43,0,0,1-8.63,3.32h-.51l-9.84.07-23,.23-19,.22-36,.35-63.38.79L62,259.79c14.4,0,24.65-.13,31.5-.25l16.38-.3,12.89-.23,23.17-.38,3.09-.05c11.94-.21,11.64-.22,11.85-.21,3.11.16,6.24-.23,9.36-.18A1.79,1.79,0,0,0,171,258a2.07,2.07,0,0,0,.41-.27l.63-.59a89.56,89.56,0,0,0,69-63.37A93.32,93.32,0,0,1,245.28,205,81,81,0,0,1,248.74,225.44Z"/><path class="cls-3" d="M250.62,108.84A85.81,85.81,0,0,1,242,144.52c-.27.56-.5,1-.66,1.33a89.58,89.58,0,0,0-69.09-64.29c-.36-.31-.73-.61-1.11-.91a3.68,3.68,0,0,0-2.48-.78l-13.65,0H115.52l-27.27,0c-11.75,0-28.84.08-51.62.3L62,24.65l81.65-.4,6,0c13.89-.06,16.57-.11,20.47-.11,4.51,0,10.93.07,18.81.36a98,98,0,0,1,34.72,22.26A89.74,89.74,0,0,1,246.43,83,83.49,83.49,0,0,1,250.62,108.84Z"/><path class="cls-4" d="M225.81,170.06A96.85,96.85,0,0,1,241,193.62a89.54,89.54,0,0,1-68.86,63.52C179.4,250.29,184,242,185.38,232c1.42-10.62-1.39-20.22-7.34-29-.85-1.24-1.84-2.38-2.74-3.59a1.73,1.73,0,0,0-1.54-.73c-2.22,0-4.45,0-6.67-.05l-23.74-.17q-10.12-.08-20.24-.18t-20.23-.18c-3.77,0-7.54-.11-11.31-.16l-.54,0L91,197.8a.15.15,0,0,1,0-.11,3.31,3.31,0,0,1,.18-.53l10.71-23.35a87.45,87.45,0,0,0,123.53-4.27Z"/><path class="cls-5" d="M241.34,145.85a134.87,134.87,0,0,1-15.7,22.31c-.24.29-.49.57-.74.85a85.61,85.61,0,0,0-63.2-27.47,87.05,87.05,0,0,0-53.31,18.12L118,138.82h1.11q16.11.12,32.23.23,10.85.09,21.7.22a1.4,1.4,0,0,0,1.13-.38c6.47-6.39,10.77-14,12-23,1.38-10.08-1.22-19.19-7.31-27.33a42.9,42.9,0,0,0-6.63-7A89.58,89.58,0,0,1,241.34,145.85Z"/><path class="cls-6" d="M224.9,169l.56.66c-13.66,14.45-27.29,20.49-34.91,23.14-9.05,3.15-17.15,4.14-23.68,4.94a153.71,153.71,0,0,1-31.14.62L91,197.62q7.05-15.48,14.16-31,6.41-13.93,12.85-27.84l27.22.28c12.74-.75,39.81-.39,64.61,16.81A91.13,91.13,0,0,1,224.9,169Z"/><path class="cls-7" d="M136.39,312.72H136L116.3,313l-19.44.23-19.67.23-19.79.22-19.56.23h-.79c.15-.41.25-.72.39-1Q49.61,286.91,61.75,261a1.44,1.44,0,0,1,1.53-1c5.51-.05,11-.15,16.54-.24h.75l12.89-.22,16.38-.3,12.89-.23,23.17-.38,3.09-.05,9.79-.17,5.55-.11,5.87-.11a1.76,1.76,0,0,0,1.23-.44l.63-.59c7.26-6.84,11.91-15.09,13.28-25.1,1.45-10.63-1.34-20.23-7.28-29-.84-1.24-1.83-2.39-2.73-3.6a1.73,1.73,0,0,0-1.54-.73c-2.22,0-4.44,0-6.67-.06l-23.74-.23-20.23-.22L102.91,198c-3.77-.05-7.54-.13-11.3-.19l-.54,0a.88.88,0,0,1-.07-.13s0-.07,0-.1a4.76,4.76,0,0,1,.19-.53q5.37-11.67,10.76-23.33,3.22-7,6.46-14L118,138.82h1.11q16.11.12,32.23.23,10.85.09,21.7.22a1.4,1.4,0,0,0,1.13-.38c6.47-6.39,10.77-14,12-23,1.38-10.08-1.22-19.19-7.31-27.33a42.9,42.9,0,0,0-6.63-7c-.36-.31-.73-.61-1.11-.91a3.68,3.68,0,0,0-2.48-.78l-13.65,0H139.14l-50.89,0H79.49c-18.56,0-33.27.17-42.86.29L62,24.65c19.88-.21,33.7-.28,42.84-.29,16.08,0,20.52-.05,29.4-.07l9.41,0,6,0,20.47-.11,8.92,0h7.93a5.51,5.51,0,0,1,2,.38,104.85,104.85,0,0,1,33.21,21.08l.47.45a90.74,90.74,0,0,1,23.89,37,79.48,79.48,0,0,1,4.12,22.14,80.64,80.64,0,0,1-8,38.22c-.19.4-.38.8-.58,1.2l-.66,1.33a96.34,96.34,0,0,1-15.7,22.31l-.53.61-.21.24.56.66.45.52a97.37,97.37,0,0,1,15.16,23.6A93.32,93.32,0,0,1,245.28,205a81,81,0,0,1,3.46,20.44,82.29,82.29,0,0,1-8.11,39.11c-7.44,15.65-18.59,28.14-32.79,38a104.52,104.52,0,0,1-10.5,6.34q-2.37,1.26-4.78,2.43a9.34,9.34,0,0,1-3.85.89h-.51l-9.84.07-23,.23Z"/></svg>